<svg xmlns="http://www.w3.org/2000/svg" width="32" height="32" viewBox="0 0 32 32">
  <defs>
    <linearGradient id="nexusTile" x1="0" y1="0" x2="32" y2="32" gradientUnits="userSpaceOnUse">
      <stop offset="0" stop-color="#2dd4bf" />
      <stop offset="0.55" stop-color="#14b8a6" />
      <stop offset="1" stop-color="#0d9488" />
    </linearGradient>
    <linearGradient id="nexusSheen" x1="16" y1="1" x2="16" y2="20" gradientUnits="userSpaceOnUse">
      <stop offset="0" stop-color="#ffffff" stop-opacity="0.22" />
      <stop offset="1" stop-color="#ffffff" stop-opacity="0" />
    </linearGradient>
  </defs>
  <rect width="32" height="32" rx="8" fill="url(#nexusTile)" />
  <rect width="32" height="32" rx="8" fill="url(#nexusSheen)" />
  <g fill="#ffffff">
    <ellipse cx="16" cy="16" rx="4.8" ry="2.3" transform="rotate(0 16 16) translate(9.7 0)" />
    <ellipse cx="16" cy="16" rx="4.8" ry="2.3" transform="rotate(60 16 16) translate(9.7 0)" />
    <ellipse cx="16" cy="16" rx="4.8" ry="2.3" transform="rotate(120 16 16) translate(9.7 0)" />
    <ellipse cx="16" cy="16" rx="4.8" ry="2.3" transform="rotate(180 16 16) translate(9.7 0)" />
    <ellipse cx="16" cy="16" rx="4.8" ry="2.3" transform="rotate(240 16 16) translate(9.7 0)" />
    <ellipse cx="16" cy="16" rx="4.8" ry="2.3" transform="rotate(300 16 16) translate(9.7 0)" />
    <circle cx="16" cy="16" r="4.5" />
  </g>
</svg>
